0
SECTION
2
HEADER
9
$ACADVER
1
AC1009
0
ENDSEC
0
SECTION
2
TABLES
0
TABLE
2
LAYER
70
1
0
LAYER
2
0
70
64
62
7
6
CONTINUOUS
0
LAYER
2
WALLS
70
64
62
1
6
CONTINUOUS
0
LAYER
2
TEXT
70
64
62
3
6
CONTINUOUS
0
ENDTAB
0
ENDSEC
0
SECTION
2
ENTITIES
0
COMMENT
Ground Floor Plan
0
LINE
8
WALLS
10
0
20
0
11
8
21
0
0
LINE
8
WALLS
10
8
20
0
11
8
21
7
0
LINE
8
WALLS
10
8
20
7
11
0
21
7
0
LINE
8
WALLS
10
0
20
7
11
0
21
0
0
LINE
8
WALLS
10
0
20
4
11
5
21
4
0
LINE
8
WALLS
10
5
20
0
11
5
21
4
0
LINE
8
WALLS
10
5
20
4
11
8
21
4
0
LINE
8
WALLS
10
2
20
4
11
2
21
7
0
LINE
8
WALLS
10
6
20
4
11
6
21
7
0
LINE
8
WALLS
10
6
20
5.5
11
8
21
5.5
0
COMMENT
Parking
0
LINE
8
WALLS
10
0
20
-3
11
5
21
-3
0
LINE
8
WALLS
10
5
20
-3
11
5
21
0
0
LINE
8
WALLS
10
0
20
-3
11
0
21
0
0
TEXT
8
TEXT
10
2.5
20
-1.5
40
0.5
1
PARKING
0
TEXT
8
TEXT
10
2.5
20
2
40
0.5
1
LIVING ROOM
0
TEXT
8
TEXT
10
6.5
20
2
40
0.5
1
KITCHEN & DINING
0
TEXT
8
TEXT
10
1
20
5.5
40
0.5
1
STAIRCASE
0
TEXT
8
TEXT
10
4
20
5.5
40
0.5
1
BEDROOM 1
0
TEXT
8
TEXT
10
7
20
4.75
40
0.5
1
WASHROOM
0
TEXT
8
TEXT
10
7
20
6.25
40
0.5
1
WASHROOM
0
COMMENT
First Floor Plan
0
LINE
8
WALLS
10
0
20
10
11
8
21
10
0
LINE
8
WALLS
10
8
20
10
11
8
21
17
0
LINE
8
WALLS
10
8
20
17
11
0
21
17
0
LINE
8
WALLS
10
0
20
17
11
0
21
10
0
LINE
8
WALLS
10
0
20
14
11
2
21
14
0
LINE
8
WALLS
10
2
20
14
11
2
21
17
0
LINE
8
WALLS
10
2
20
13.5
11
6
21
13.5
0
LINE
8
WALLS
10
6
20
13.5
11
6
21
17
0
LINE
8
WALLS
10
6
20
15.5
11
8
21
15.5
0
LINE
8
WALLS
10
6
20
11.5
11
8
21
11.5
0
COMMENT
Balcony
0
LINE
8
WALLS
10
2
20
17
11
5
21
17
0
LINE
8
WALLS
10
5
20
17
11
5
21
18.5
0
LINE
8
WALLS
10
5
20
18.5
11
2
21
18.5
0
LINE
8
WALLS
10
2
20
18.5
11
2
21
17
0
TEXT
8
TEXT
10
1
20
15.5
40
0.5
1
HALLWAY
0
TEXT
8
TEXT
10
4
20
15.25
40
0.5
1
BEDROOM 2
0
TEXT
8
TEXT
10
7
20
16.25
40
0.5
1
WASHROOM
0
TEXT
8
TEXT
10
3.5
20
17.75
40
0.5
1
BALCONY
0
TEXT
8
TEXT
10
4
20
11.75
40
0.5
1
BEDROOM 3
0
TEXT
8
TEXT
10
7
20
10.75
40
0.5
1
WASHROOM
0
ENDSEC
0
EOF