0
SECTION
2
HEADER
9
$ACADVER
1
AC1015
0
ENDSEC
0
SECTION
2
ENTITIES
0
LINE
8
WALLS
10
0
20
0
11
12
21
0
0
LINE
8
WALLS
10
12
20
0
11
12
21
9.5
0
LINE
8
WALLS
10
12
20
9.5
11
0
21
9.5
0
LINE
8
WALLS
10
0
20
9.5
11
0
21
0
0
LINE
8
WALLS
10
-5
20
0
11
0
21
0
0
LINE
8
WALLS
10
-5
20
5
11
0
21
5
0
LINE
8
WALLS
10
-5
20
0
11
-5
21
5
0
LINE
8
WALLS
10
6
20
-2
11
8
21
-2
0
LINE
8
WALLS
10
8
20
-2
11
8
21
0
0
LINE
8
WALLS
10
8
20
0
11
6
21
0
0
LINE
8
WALLS
10
6
20
0
11
6
21
-2
0
LINE
8
WALLS
10
3
20
0
11
3
21
4.5
0
LINE
8
WALLS
10
6
20
0
11
6
21
4.5
0
LINE
8
WALLS
10
0
20
4.5
11
2.5
21
4.5
0
LINE
8
WALLS
10
3
20
4.5
11
6
21
4.5
0
LINE
8
WALLS
10
6
20
4.5
11
12
21
4.5
0
LINE
8
WALLS
10
2.5
20
4.5
11
2.5
21
7
0
LINE
8
WALLS
10
0
20
7
11
2.5
21
7
0
LINE
8
WALLS
10
3
20
7
11
6
21
7
0
LINE
8
WALLS
10
4.5
20
7
11
6.5
21
7
0
LINE
8
WALLS
10
4.5
20
5
11
4.5
21
9.5
0
LINE
8
WALLS
10
6.5
20
7
11
6.5
21
9.5
0
TEXT
8
TEXT
10
9
20
2.25
40
0.5
1
Living Room
0
TEXT
8
TEXT
10
4.5
20
2.25
40
0.5
1
Dining Room
0
TEXT
8
TEXT
10
4.5
20
5.75
40
0.5
1
Kitchen
0
TEXT
8
TEXT
10
2.25
20
7.25
40
0.5
1
Bedroom 1
0
TEXT
8
TEXT
10
5.5
20
8.25
40
0.5
1
Washroom 1
0
TEXT
8
TEXT
10
1.5
20
2.25
40
0.5
1
Bedroom 2
0
TEXT
8
TEXT
10
1.25
20
5.75
40
0.5
1
Washroom 2
0
TEXT
8
TEXT
10
-2.5
20
2.5
40
0.5
1
Parking
0
TEXT
8
TEXT
10
7
20
-1
40
0.5
1
Patio
0
ENDSEC
0
EOF